<?xml version="1.0" encoding="UTF-8"?><svg id="a" xmlns="http://www.w3.org/2000/svg" width="925.54" height="143.85" xmlns:xlink="http://www.w3.org/1999/xlink" viewBox="0 0 925.54 143.85"><defs><style>.d{fill:url(#b);}.e{fill:url(#c);}</style><linearGradient id="b" x1="121.52" y1="183.69" x2="403.61" y2="-98.4" gradientUnits="userSpaceOnUse"><stop offset="0" stop-color="#4481eb"/><stop offset=".03" stop-color="#4084ec"/><stop offset=".26" stop-color="#269df3"/><stop offset=".5" stop-color="#13aff9"/><stop offset=".74" stop-color="#07bafc"/><stop offset="1" stop-color="#04befe"/></linearGradient><linearGradient id="c" x1="576.09" y1="191.84" x2="846.74" y2="-78.81" gradientUnits="userSpaceOnUse"><stop offset="0" stop-color="#aedcff"/><stop offset=".24" stop-color="#c8e7ff"/><stop offset=".48" stop-color="#daefff"/><stop offset=".73" stop-color="#e6f4ff"/><stop offset="1" stop-color="#eaf6ff"/></linearGradient></defs><g><path class="d" d="M200.45,67.11c12.86-6.43,19.49-17.28,19.49-30.34C219.94,15.48,201.86,0,163.09,0h-28.53S.02,0,.02,0C.02,0-1.56,32.17,26.29,33.08l61.66,.03v20.75H31.47s-1.58,32.17,26.27,33.08l30.21,.03v20.54h-24.62s-1.45,32.17,24.14,33.08l.48,.02v.03h79.16c38.77,0,59.47-14.26,59.47-38.77,0-16.68-9.64-28.73-26.12-34.76Zm-43.8-33.95c10.65,0,15.47,3.62,15.47,10.45s-4.82,10.45-15.47,10.45h-22.1v-20.89h22.1Zm6.43,74.33h-28.53v-22.1h28.53c10.45,0,15.67,3.82,15.67,11.05s-5.22,11.05-15.67,11.05Z"/><polygon class="d" points="290.66 0 243.25 0 243.25 140.64 354.15 140.64 354.15 103.87 290.66 103.87 290.66 0"/><path class="d" d="M455.41,0V75.95c0,21.5-8.24,29.53-21.5,29.53s-21.5-8.04-21.5-29.53V0h-47.41V77.35c0,42.19,25.31,66.5,68.51,66.5s68.51-24.31,68.51-66.5V0h-46.61Z"/></g><g><path class="e" d="M507.45,122.96l25.52-30.14c7.43,9.24,14.47,13.86,22.3,13.86,9.84,0,15.27-6.03,15.27-17.48V35.76h-47.82V0h94.63V86.39c0,38.58-20.29,57.46-58.06,57.46-21.9,0-40.18-7.23-51.84-20.9Z"/><path class="e" d="M731.86,116.13h-53.44l-9.44,24.51h-48.22L682.24,0h46.61l61.48,140.64h-49.02l-9.44-24.51Zm-13.06-34.15l-13.66-35.36-13.66,35.36h27.32Z"/><path class="e" d="M872.5,89.61v51.03h-47.42v-51.63L772.05,0h50.03l28.73,48.62L879.73,0h45.81l-53.04,89.61Z"/></g></svg>